Coordinates
version=1
nRows=49
nColumns=12
inDegrees=yes

Units are S.I. units (second, meters, Newtons, ...)
Angles are in degrees

endheader
time	SC_y	SC_z	SC_x	AC_y	AC_z	AC_x	GH_y	GH_z	GH_yy	EL_x	PS_y
       0.0              -47.39         -4.087         0.4842          69.72          9.095       -0.06203          88.87          5.641          25.05          47.72          142.6
  0.001431              -47.39         -4.085         0.4864          69.72          9.093       -0.06229          88.88          5.652          25.06          47.73          142.5
  0.002862              -47.39         -4.082         0.4887          69.72          9.091       -0.06257          88.88          5.665          25.08          47.74          142.5
  0.004294              -47.39         -4.079         0.4911          69.71          9.089       -0.06287          88.88          5.678          25.09          47.75          142.5
  0.005725              -47.39         -4.076         0.4937          69.71          9.087       -0.06318          88.88          5.691          25.11          47.76          142.5
  0.007156              -47.39         -4.073         0.4965          69.71          9.084       -0.06352          88.89          5.706          25.13          47.77          142.5
  0.008587              -47.39         -4.069         0.4995          69.71          9.082       -0.06388          88.89          5.722          25.15          47.78          142.4
   0.01002              -47.39         -4.066         0.5027           69.7          9.079       -0.06426          88.89          5.739          25.17           47.8          142.4
   0.01145              -47.39         -4.062         0.5061           69.7          9.076       -0.06467           88.9          5.757          25.19          47.81          142.4
   0.01288              -47.39         -4.057         0.5098          69.69          9.072       -0.06511           88.9          5.776          25.21          47.82          142.4
   0.01431              -47.39         -4.053         0.5137          69.69          9.069       -0.06559           88.9          5.797          25.24          47.84          142.3
   0.01574              -47.39         -4.048         0.5179          69.69          9.065        -0.0661          88.91           5.82          25.27          47.85          142.3
   0.01717              -47.39         -4.042         0.5225          69.68          9.061       -0.06665          88.91          5.844           25.3          47.87          142.3
   0.01861              -47.39         -4.036         0.5274          69.68          9.057       -0.06724          88.92           5.87          25.33          47.89          142.2
   0.02004              -47.39          -4.03         0.5327          69.67          9.052       -0.06789          88.92          5.898          25.37          47.91          142.2
   0.02147              -47.39         -4.023         0.5385          69.66          9.047       -0.06859          88.93          5.929           25.4          47.94          142.1
    0.0229              -47.39         -4.016         0.5448          69.66          9.041       -0.06934          88.94          5.962          25.45          47.96          142.1
   0.02433              -47.39         -4.008         0.5516          69.65          9.035       -0.07017          88.94          5.998          25.49          47.99          142.0
   0.02576              -47.39         -3.999         0.5591          69.64          9.028       -0.07107          88.95          6.038          25.54          48.02          142.0
   0.02719              -47.39         -3.989         0.5672          69.63          9.021       -0.07206          88.96          6.081          25.59          48.05          141.9
   0.02862              -47.39         -3.979         0.5762          69.63          9.013       -0.07314          88.97          6.129          25.65          48.08          141.9
   0.03006              -47.39         -3.967         0.5861          69.62          9.004       -0.07434          88.98          6.181          25.72          48.12          141.8
   0.03149              -47.39         -3.954          0.597           69.6          8.994       -0.07565          88.99          6.239          25.79          48.16          141.7
   0.03292              -47.39          -3.94         0.6091          69.59          8.984       -0.07711           89.0          6.303          25.87          48.21          141.6
   0.03435              -47.39         -3.924         0.6225          69.58          8.972       -0.07874          89.02          6.374          25.96          48.26          141.5
   0.03578              -47.39         -3.906         0.6375          69.56          8.958       -0.08055          89.03          6.454          26.06          48.32          141.4
   0.03721              -47.39         -3.887         0.6543          69.54          8.943       -0.08258          89.05          6.543          26.17          48.39          141.2
   0.03864              -47.39         -3.864         0.6732          69.52          8.926       -0.08486          89.07          6.643          26.29          48.46          141.1
   0.04007              -47.39         -3.839         0.6946           69.5          8.907       -0.08744          89.09          6.756          26.43          48.55          140.9
   0.04151              -47.39          -3.81         0.7188          69.48          8.885       -0.09037          89.12          6.885          26.59          48.64          140.8
   0.04294              -47.38         -3.778         0.7465          69.45          8.861       -0.09371          89.15          7.031          26.78          48.75          140.5
   0.04437              -47.38          -3.74         0.7782          69.41          8.832       -0.09755          89.18            7.2          26.99          48.87          140.3
    0.0458              -47.38         -3.697         0.8149          69.38          8.799         -0.102          89.22          7.394          27.23          49.02          140.0
   0.04723              -47.38         -3.647         0.8575          69.33          8.761        -0.1071          89.26           7.62          27.51          49.18          139.7
   0.04866              -47.38         -3.588         0.9074          69.28          8.717        -0.1131          89.32          7.884          27.84          49.38          139.3
   0.05009              -47.38         -3.518         0.9661          69.22          8.664        -0.1202          89.38          8.195          28.23          49.61          138.9
   0.05152              -47.37         -3.436          1.036          69.14          8.602        -0.1287          89.45          8.566          28.69          49.88          138.3
   0.05296              -47.37         -3.337           1.12          69.06          8.527        -0.1388          89.54          9.009          29.24          50.21          137.7
   0.05439              -47.37         -3.218          1.221          68.95          8.436         -0.151          89.65          9.546          29.91          50.61          136.9
   0.05582              -47.36         -3.071          1.345          68.82          8.326         -0.166          89.78           10.2          30.72          51.09          135.9
   0.05725              -47.36         -2.891          1.497          68.66          8.189        -0.1844          89.94          11.01          31.73          51.69          134.8
   0.05868              -47.35         -2.666          1.688          68.46          8.019        -0.2074          90.14          12.02          32.98          52.43          133.3
   0.06011              -47.34         -2.383          1.928          68.21          7.804        -0.2364          90.39          13.29          34.57          53.37          131.5
   0.06154              -47.33         -2.023          2.232          67.89          7.532        -0.2732          90.71          14.91          36.58          54.56          129.1
   0.06297              -47.31         -1.562          2.623          67.48          7.183        -0.3204          91.12          16.98          39.15          56.09          126.1
    0.0644              -47.29        -0.9709          3.123          66.96          6.735        -0.3809          91.64          19.63          42.45          58.05          122.3
   0.06584              -47.27        -0.2155          3.763          66.29          6.163        -0.4581          92.31          23.02          46.67          60.55          117.4
   0.06727              -47.24         0.7343          4.568          65.45          5.443        -0.5553          93.16          27.29          51.98           63.7          111.2
    0.0687               -47.2          1.892          5.548          64.42          4.567        -0.6737          94.19          32.48          58.44          67.53          103.6
